<svg xmlns="http://www.w3.org/2000/svg" width="3398" height="1024"><path d="M245.929.049a488.668 488.668 0 0 0-50.215 4.872c-29.723 4.744-57.953 13.988-84.691 27.731-51.866 27.692-82.719 70.787-92.56 129.285-2.182 12.816 3.188 20.183 16.114 22.11a5768.816 5768.816 0 0 0 102.678 11.992c8.1-2.106 13.221-7.225 15.364-15.364 3.349-21.084 13.467-37.948 30.354-50.59 28.495-18.683 58.722-22.18 90.687-10.493 18.302 8.576 28.922 22.941 31.853 43.095a358.267 358.267 0 0 1 4.122 67.453 3094.07 3094.07 0 0 0-83.192 7.87 562.916 562.916 0 0 0-32.977 5.246c-35.105 6.153-68.582 17.141-100.43 32.977C30.932 311.968-.046 365.93.101 438.12c-1.147 35.518 7.472 68.367 25.857 98.556 32.959 43.709 77.054 65.692 132.283 65.954 67.873-3.283 124.96-29.514 171.255-78.695 10.74 13.993 21.487 27.978 32.227 41.971a280.796 280.796 0 0 0 24.358 24.358c8.986 6.468 18.475 7.217 28.48 2.248l80.943-69.701c9.316-8.049 10.44-17.171 3.373-27.356a463.239 463.239 0 0 1-20.985-28.48c-10.223-14.937-16.473-31.426-18.737-49.465a20828.635 20828.635 0 0 1-1.499-245.828c-.345-80.546-38.695-133.384-115.045-158.514C311.066 3.862 278.838-.51 245.929.052zm36.725 314.78h26.981c.27 23.496-.105 46.977-1.124 70.451-3.23 28.697-13.221 54.674-29.979 77.946-16.001 20.176-36.859 31.171-62.581 32.977-26.059-1.222-44.421-13.715-55.087-37.474-9.454-26.457-9.454-52.943 0-79.445 10.394-23.631 27.507-40.494 51.339-50.59a147.473 147.473 0 0 1 42.72-11.242c9.346-.997 18.595-1.874 27.731-2.623zM1611.476.049c-38.073.893-75.045 8.013-110.923 21.36-65.01 25.048-103.862 71.891-116.544 140.527-2.181 12.816 3.185 20.183 16.114 22.11a5767.732 5767.732 0 0 0 102.678 11.992c7.847-2.353 12.973-7.472 15.364-15.364 3.29-19.966 12.659-36.329 28.105-49.091 28.922-19.977 59.898-23.974 92.935-11.992 17.081 8.094 27.446 21.46 31.103 40.097a340.124 340.124 0 0 1 4.872 70.451 3094.07 3094.07 0 0 0-83.192 7.87 562.916 562.916 0 0 0-32.977 5.246c-35.105 6.153-68.585 17.141-100.43 32.977-62.109 35.75-93.085 89.712-92.935 161.887-1.207 36.522 7.907 70.121 27.356 100.805 33.052 42.315 76.649 63.556 130.784 63.706 67.88-3.283 124.96-29.514 171.255-78.695a1300.649 1300.649 0 0 0 32.227 41.971 280.796 280.796 0 0 0 24.358 24.358c10.035 7.135 20.273 7.382 30.729.749 26.232-22.732 52.463-45.471 78.695-68.202 8.447-7.367 9.826-15.986 4.122-25.857a834.109 834.109 0 0 1-24.733-34.476c-8.379-13.888-13.625-28.877-15.739-44.969-.764-87.179-1.514-174.373-2.248-261.567a274.204 274.204 0 0 0-5.246-33.726c-3.238-17.723-10.23-33.712-20.985-47.967-22.709-29.67-52.066-50.031-88.064-61.082-31.545-9.306-63.773-13.678-96.682-13.116zm36.724 314.78h26.981c.27 23.249-.105 46.483-1.124 69.701-3.08 28.99-13.071 55.221-29.979 78.695-15.971 20.168-36.837 31.156-62.581 32.977-26.059-1.222-44.421-13.715-55.087-37.474-9.436-26.457-9.436-52.936 0-79.445 10.395-23.631 27.506-40.494 51.339-50.59a142.061 142.061 0 0 1 42.72-11.242c9.346-.997 18.595-1.874 27.731-2.623zM852.256 5.296c58.129-2.236 101.472 21.747 130.034 71.95a338.284 338.284 0 0 1 13.491 26.981c26.801-64.098 75.143-97.075 145.024-98.931 42.203.321 78.553 14.811 109.049 43.47 20.671 21.86 32.91 47.841 36.724 77.946a314.128 314.128 0 0 1 2.998 34.476c-.18 139.148-.427 278.303-.749 417.459-2.758 9.069-8.881 14.195-18.362 15.364-35.975.502-71.95.502-107.925 0-7.862-1.117-13.483-5.239-16.863-12.366a45817.74 45817.74 0 0 1-1.499-368.743c-1.117-56.833-29.469-79.442-85.066-67.828-28.12 12.106-43.987 33.464-47.592 64.08a319.908 319.908 0 0 0-2.998 30.729c-.247 112.174-.502 224.341-.749 336.515-2.031 10.523-8.402 16.399-19.112 17.613a3813.76 3813.76 0 0 1-107.175 0c-10.305-1.559-16.429-7.435-18.362-17.613-.592-108.299-.465-216.599.375-324.898a373.319 373.319 0 0 0-2.623-46.842c-7.262-53.905-37.114-73.766-89.562-59.583-13.528 6.036-23.646 15.654-30.354 28.855-7.195 16.226-11.437 33.217-12.741 50.964a478.144 478.144 0 0 0-1.499 24.733c-.247 109.671-.502 219.349-.749 329.02-2.758 9.069-8.881 14.195-18.362 15.364-35.975.502-71.95.502-107.925 0-9.039-1.079-14.915-5.951-17.613-14.615-.749-183.404-.495-366.779.749-550.116 2.593-5.86 6.97-9.733 13.116-11.617 34.978-.636 69.949-.885 104.927-.749 9.481 1.172 15.604 6.293 18.362 15.364.127 24.487.502 48.969 1.124 73.449 9.953-27.794 25.939-51.403 47.967-70.826C793.161 16.169 821.139 6.3 852.257 5.297zM2639.758 5.296c-57.193 1.859-106.283 22.594-147.272 62.207-30.998 32.997-52.733 71.47-65.204 115.419-14.637 52.546-19.629 106.013-14.99 160.388 3.695 58.519 20.678 112.729 50.964 162.636 36.425 56.151 88.011 88.753 154.767 97.807 60.902 7.262 115.862-7.225 164.885-43.47 34.498-28.383 60.355-63.233 77.571-104.552 21.975-55.371 30.968-112.834 26.981-172.38-2.233-55.416-15.724-107.88-40.472-157.39-44.676-81.383-113.756-121.606-207.23-120.666zm2.998 110.922c32.145-2.114 55.251 11.127 69.327 39.722a269.99 269.99 0 0 1 15.739 65.204c6.048 55.439 6.303 110.9.749 166.384-2.301 20.431-7.292 40.172-14.99 59.209-19.389 41.521-50.74 54.884-94.059 40.097-16.039-10.298-27.408-24.418-34.101-42.345a257.275 257.275 0 0 1-14.99-63.706 847.055 847.055 0 0 1 0-165.634 208.334 208.334 0 0 1 13.491-52.463c5.479-13.102 13.603-24.219 24.358-33.352 10.35-7.554 21.84-11.926 34.476-13.116zM3240.089 5.296c34.244-1.683 65.722 6.687 94.434 25.107 27.019 19.661 44.631 45.768 52.838 78.32 6.843 29.325 10.335 59.051 10.493 89.188.742 127.943.495 255.856-.749 383.732-2.496 5.988-6.865 9.863-13.116 11.617a1187.62 1187.62 0 0 1-58.459 1.124 1187.62 1187.62 0 0 1-58.459-1.124c-5.516-2.016-9.638-5.636-12.366-10.867a39898.794 39898.794 0 0 1-1.499-345.509c.075-20.783-3.17-41.019-9.743-60.708-10.215-24.603-28.705-37.095-55.461-37.474-30.204 3.215-50.934 18.954-62.207 47.217-8.582 21.915-13.326 44.646-14.24 68.202-.247 106.928-.502 213.848-.749 320.776-1.372 11.37-7.742 17.74-19.112 19.112a3813.76 3813.76 0 0 1-107.175 0c-10.305-1.559-16.429-7.435-18.362-17.613-.749-182.153-.495-364.276.749-546.369 2.758-6.257 7.382-10.38 13.865-12.366 34.476-.634 68.952-.884 103.428-.749 9.151.666 15.274 5.287 18.362 13.865.127 27.984.502 55.964 1.124 83.941 9.054-23.115 21.165-44.35 36.35-63.706 26.531-29.939 59.883-45.178 100.055-45.718zM1979.469 15.788c118.919-.125 237.831 0 356.751.375 7.12 2.123 11.744 6.745 13.865 13.865.502 25.482.502 50.964 0 76.447a115.462 115.462 0 0 1-14.99 29.23 52980.437 52980.437 0 0 0-188.493 268.687c54.869-1.619 108.082 6.873 159.639 25.482a314.783 314.783 0 0 1 41.221 20.236c7.397 6.168 11.767 14.038 13.116 23.609.502 29.979.502 59.958 0 89.937-3.215 11.714-10.837 16.833-22.859 15.364-95.963-48.244-195.643-57.74-299.041-28.48a400.722 400.722 0 0 0-71.2 29.23c-10.65.839-17.77-3.777-21.36-13.865a3398.99 3398.99 0 0 1 0-101.179c1.327-13.888 5.823-26.629 13.491-38.223a120287.21 120287.21 0 0 0 204.982-293.795c-61.704-.624-123.409-.999-185.121-1.124-7.12-2.123-11.744-6.745-13.865-13.865-.502-29.23-.502-58.459 0-87.689 2.278-7.152 6.903-11.898 13.865-14.24zM2136.11 617.618a433.163 433.163 0 0 1 100.43 7.87c12.794 2.436 24.785 6.933 35.975 13.491 5.014 4.774 7.884 10.643 8.619 17.613a217.216 217.216 0 0 1-1.499 59.958c-10.065 65.564-33.801 125.522-71.2 179.874-12.479 17.23-26.839 32.842-43.095 46.842-4.999 4.25-10.747 6.873-17.238 7.87-6.813-.442-10.56-4.07-11.242-10.867a49.275 49.275 0 0 1 2.623-10.118 1116.972 1116.972 0 0 0 51.714-150.645 237.775 237.775 0 0 0 6.371-44.969c.457-9.653-1.664-18.647-6.371-26.981-6.573-6.603-14.442-10.972-23.609-13.116a287.365 287.365 0 0 0-62.581-6.371 1449.699 1449.699 0 0 0-147.272 11.992c-12.246-.622-16.121-6.618-11.617-17.987a76.509 76.509 0 0 1 8.619-9.368c35.593-23.781 74.565-39.52 116.918-47.217a544.249 544.249 0 0 1 64.455-7.87z"/><path d="M493.257 652.843a33.656 33.656 0 0 1 11.992 1.874c209.052 119.819 433.392 194.767 673.03 224.843 288.264 35.008 568.321 1.536 840.163-100.43a5698.475 5698.475 0 0 0 68.202-26.981c13.91-3.305 25.28.57 34.101 11.617 5.389 11.07 4.137 21.315-3.747 30.729a52.76 52.76 0 0 1-7.87 7.12c-86.265 61.749-179.949 109.963-281.054 144.649-262.002 91.151-527.317 102.146-795.944 32.977-206.676-55.769-388.671-154.827-545.994-297.168-7.262-8.619-7.39-17.238-.375-25.857a48.935 48.935 0 0 1 7.495-3.373z"/></svg>