<svg aria-hidden="true" style="position: absolute; width: 0; height: 0; overflow: hidden;" version="1.1" xmlns="http://www.w3.org/2000/svg" xmlns:xlink="http://www.w3.org/1999/xlink">
<defs>

<symbol id="icon-mail" viewBox="0 0 32 32">
<path stroke-linejoin="round" stroke-linecap="round" stroke-miterlimit="4" stroke-width="2.2857" d="M28.666 24l-8.857-8M12.191 16l-8.857 8M2.666 9.334l10.887 7.621c0.881 0.617 1.322 0.926 1.802 1.045 0.423 0.106 0.866 0.106 1.289 0 0.48-0.119 0.921-0.427 1.802-1.045l10.887-7.621M9.066 26.666h13.867c2.24 0 3.36 0 4.216-0.435 0.756-0.391 1.358-0.992 1.738-1.726l0.011-0.022c0.434-0.855 0.434-1.976 0.434-4.216v-8.533c0-2.24 0-3.36-0.434-4.217-0.391-0.756-0.992-1.357-1.726-1.737l-0.022-0.011c-0.857-0.435-1.977-0.435-4.217-0.435h-13.865c-2.24 0-3.36 0-4.216 0.435-0.756 0.391-1.358 0.992-1.738 1.726l-0.010 0.022c-0.434 0.855-0.434 1.975-0.434 4.216v8.533c0 2.24 0 3.36 0.434 4.217 0.391 0.756 0.992 1.357 1.726 1.737l0.022 0.011c0.856 0.435 1.977 0.435 4.217 0.435z"></path>
</symbol>
<symbol id="icon-password-lock" viewBox="0 0 32 32">
<path stroke-linejoin="round" stroke-linecap="round" stroke-miterlimit="4" stroke-width="2.2857" d="M22.666 14.666v-4c0-3.682-2.985-6.666-6.666-6.666s-6.666 2.985-6.666 6.666v0 4M10.4 28h11.2c2.24 0 3.36 0 4.216-0.435 0.756-0.391 1.358-0.992 1.738-1.726l0.011-0.022c0.435-0.856 0.435-1.976 0.435-4.216v-0.534c0-2.24 0-3.36-0.435-4.216-0.391-0.756-0.992-1.358-1.726-1.738l-0.022-0.011c-0.856-0.434-1.976-0.434-4.216-0.434h-11.2c-2.24 0-3.36 0-4.216 0.434-0.756 0.391-1.358 0.992-1.738 1.726l-0.011 0.022c-0.435 0.857-0.435 1.977-0.435 4.217v0.533c0 2.24 0 3.36 0.435 4.216 0.391 0.756 0.992 1.358 1.726 1.738l0.022 0.011c0.856 0.435 1.976 0.435 4.216 0.435z"></path>
</symbol>
<symbol id="icon-close" viewBox="0 0 32 32">
<path stroke-linejoin="round" stroke-linecap="round" stroke-miterlimit="4" stroke-width="3.4286" d="M24 8l-16 16M8 8l16 16"></path>
</symbol>
<symbol id="icon-burger" viewBox="0 0 32 32">
<path stroke-linejoin="round" stroke-linecap="round" stroke-miterlimit="4" stroke-width="2.2857" d="M22.666 13.334h-18.666M28 8h-24M28 18.666h-24M22.666 24h-18.666"></path>
</symbol>
<symbol id="icon-trash" viewBox="0 0 32 32">
<path fill="none" stroke="#fff" style="stroke: var(--color1, #fff)" stroke-linejoin="round" stroke-linecap="round" stroke-miterlimit="4" stroke-width="2.9091" d="M12 4h8M4 8h24M25.334 8l-0.935 14.026c-0.141 2.103-0.211 3.156-0.665 3.953-0.405 0.703-0.997 1.259-1.707 1.61l-0.023 0.010c-0.828 0.4-1.881 0.4-3.99 0.4h-4.026c-2.109 0-3.162 0-3.99-0.4-0.734-0.361-1.326-0.917-1.721-1.601l-0.010-0.019c-0.454-0.797-0.524-1.85-0.665-3.953l-0.935-14.026M13.334 14v6.666M18.666 14v6.666"></path>
</symbol>
<symbol id="icon-arrow-up" viewBox="0 0 32 32">
<path  d="M4.5 19.6l11.2-11.233c0.133-0.133 0.277-0.227 0.433-0.283 0.146-0.053 0.314-0.084 0.489-0.084 0.004 0 0.008 0 0.011 0h-0.001c0.177 0 0.344 0.028 0.5 0.084 0.17 0.064 0.315 0.16 0.433 0.282l11.234 11.234c0.311 0.311 0.467 0.7 0.467 1.167s-0.167 0.867-0.5 1.2c-0.292 0.308-0.705 0.5-1.162 0.5-0.002 0-0.003 0-0.005 0h0c-0.001 0-0.003 0-0.005 0-0.457 0-0.87-0.192-1.161-0.499l-0.001-0.001-9.8-9.8-9.8 9.8c-0.311 0.311-0.693 0.467-1.149 0.467s-0.851-0.167-1.184-0.5c-0.308-0.292-0.5-0.705-0.5-1.162 0-0.002 0-0.003 0-0.005v0c0-0.001 0-0.003 0-0.005 0-0.457 0.192-0.87 0.499-1.161l0.001-0.001z"></path>
</symbol>
<symbol id="icon-arrow-login" viewBox="0 0 32 32">
<path fill="none" stroke="#eac645" style="stroke: var(--color2, #eac645)" stroke-linejoin="round" stroke-linecap="round" stroke-miterlimit="4" stroke-width="3.2" d="M5.333 16h21.334M26.667 16l-8-8M26.667 16l-8 8"></path>
</symbol>
<symbol id="icon-logotype" viewBox="0 0 32 32">
<path fill="#f6f6f6" style="fill: var(--color3, #f6f6f6)" d="M0 0l16.343 16.172 15.657 15.828v-32h-32z"></path>
<path fill="#f6f6f6" style="fill: var(--color3, #f6f6f6)" d="M4.457 4.228l11.943 11.829 11.257 11.485h-23.2v-23.315z"></path>
<path fill="#4f2ee8" style="fill: var(--color4, #4f2ee8)" d="M27.733 27.619l-11.944-11.829-11.256-11.485h23.2v23.315z"></path>
<path fill="#4f2ee8" style="fill: var(--color4, #4f2ee8)" d="M9.257 9.028l13.6 13.601h-13.6v-13.6z"></path>
<path fill="#f6f6f6" style="fill: var(--color3, #f6f6f6)" d="M9.257 9.028l13.6 13.601v-13.6h-13.6z"></path>
</symbol>
<symbol id="icon-cart" viewBox="0 0 32 32">
<path d="M25.333 9.333h-4v-1.333c0-2.945-2.388-5.333-5.333-5.333s-5.333 2.388-5.333 5.333v0 1.333h-4c-0 0-0.001 0-0.002 0-0.736 0-1.333 0.597-1.333 1.333 0 0.001 0 0.001 0 0.002v-0 14.666c0 2.209 1.791 4 4 4v0h13.334c2.209 0 4-1.791 4-4v0-14.666c0-0 0-0.001 0-0.002 0-0.736-0.597-1.333-1.333-1.333-0.001 0-0.001 0-0.002 0h0zM13.333 8c0-1.473 1.194-2.667 2.667-2.667s2.667 1.194 2.667 2.667v1.333h-5.334v-1.333zM24 25.333c0 0 0 0.001 0 0.002 0 0.736-0.597 1.333-1.333 1.333h-13.334c-0.736 0-1.333-0.597-1.333-1.333 0-0.001 0-0.001 0-0.002v0-13.333h2.667v1.333c0 0.736 0.597 1.333 1.333 1.333s1.333-0.597 1.333-1.333v0-1.333h5.334v1.333c0.036 0.708 0.619 1.269 1.333 1.269s1.297-0.561 1.333-1.266l0-0.003v-1.333h2.667v13.333z"></path>
</symbol>
<symbol id="icon-coat" viewBox="0 0 20 32">
<path fill="#fff" style="fill: var(--color1, #fff)" d="M9.005 30.888c-1.738-1.269-2.974-3.137-3.405-5.296l-0.009-0.055h-5.591v-23.117c2.991 1.443 5.153 4.6 5.388 7.876l0.845 6.493-0.407-0.045c-0.893 0-1.676 0.812-1.676 1.608 0 0.752 0.595 1.383 1.379 1.548l1.018 0.226c1.675-3.051 2.63-6.042 2.63-8.973 0-2.646-0.36-5.291-0.422-7.997 0-1.202 0.485-2.3 1.253-3.156 0.783 0.857 1.253 1.954 1.253 3.156 0 2.706-0.423 5.351-0.423 7.997 0 2.93 0.955 5.922 2.631 8.973l1.018-0.226c0.783-0.165 1.378-0.811 1.378-1.548 0-0.811-0.783-1.608-1.675-1.608l-0.423 0.060 0.845-6.493c0.423-3.277 2.398-6.448 5.388-7.876v23.117h-5.576c-0.422 2.18-1.613 4.148-3.414 5.35-0.423 0.286-0.783 0.632-1.018 1.098-0.22-0.466-0.58-0.812-0.987-1.112zM2.647 17.556c0.235-0.857 0.893-1.609 1.738-2.075l-0.658-5.35c-0.246-1.699-0.975-3.195-2.043-4.382l0.007 0.008v11.783h0.956v0.015zM5.466 23.929c0-0.812 0.125-1.548 0.298-2.3l-0.784-0.18c-1.143-0.346-2.036-1.203-2.333-2.3h-0.957v4.78h3.775zM9.178 23.929c0-0.977-0.783-1.834-1.801-1.954-0.173 0.63-0.298 1.262-0.298 1.954h2.099zM9.178 25.552h-1.864c0.298 1.262 0.955 2.42 1.864 3.397v-3.397zM11.808 20.547c-0.72-1.263-1.377-2.585-1.8-3.968-0.423 1.383-1.080 2.705-1.801 3.968 0.72 0.165 1.315 0.631 1.8 1.157 0.486-0.526 1.082-0.992 1.802-1.157zM12.952 23.929c0-0.692-0.125-1.323-0.297-1.954-1.018 0.12-1.801 0.977-1.801 1.954h2.098zM12.717 25.552h-1.863v3.397c0.908-0.992 1.566-2.135 1.863-3.397zM18.34 23.929v-4.78h-0.956c-0.297 1.097-1.206 1.954-2.333 2.3l-0.783 0.18c0.172 0.752 0.297 1.488 0.297 2.3h3.775zM18.34 17.556v-11.8c-1.080 1.203-1.864 2.706-2.036 4.375l-0.658 5.35c0.846 0.466 1.504 1.203 1.738 2.075h0.956z"></path>
</symbol>
<!-- ScrollUP icon -->
    <symbol id="up-icon" viewBox="0 0 24 24">
       <path fill="white" d="m3.375 14.7 8.4-8.425c.1-.1.208-.17.325-.212A1.1 1.1 0 0 1 12.475 6c.133 0 .258.021.375.063a.872.872 0 0 1 .325.212L21.6 14.7c.233.233.35.525.35.875s-.125.65-.375.9a1.2 1.2 0 0 1-.875.375 1.2 1.2 0 0 1-.875-.375l-7.35-7.35-7.35 7.35c-.233.233-.52.35-.862.35-.342 0-.638-.125-.888-.375A1.2 1.2 0 0 1 3 15.575a1.2 1.2 0 0 1 .375-.875Z"/></path>
    </symbol>
<!-- Footer icon -->
    <symbol id="footer-icon" viewBox="0 0 32 32">
        <path fill="#ae9aa4" style="fill: var(--color1, #ae9aa4)" d="M9.328 20.253c0 3.693 2.994 6.688 6.688 6.688s6.688-2.994 6.688-6.688v0c0-3.693-2.994-6.688-6.688-6.688s-6.688 2.994-6.688 6.688v0z"></path>
        <path fill="#fff" style="fill: var(--color2, #fff)" d="M16.016 17.794l-2.2-3.813h4.4z"></path>
        <path fill="#843a5f" style="fill: var(--color3, #843a5f)" d="M16.016 13.659c0.594 0 1.172 0.081 1.722 0.228h-3.441c0.547-0.15 1.125-0.228 1.719-0.228zM16.719 16.387l-0.703 1.216-0.703-1.216h1.406zM15.009 15.859l-1.031-1.787h2.062l-1.031 1.787zM16.081 14.075h1.975l-0.988 1.709-0.988-1.709zM16.016 26.85c-3.637 0-6.594-2.959-6.594-6.594 0-2.841 1.806-5.269 4.331-6.194l1.147 1.987-0.197 0.341h0.394l0.919 1.591 0.919-1.591h0.481l-0.241-0.416 1.103-1.912c2.525 0.925 4.331 3.353 4.331 6.194 0 3.634-2.956 6.594-6.594 6.594zM20.813 15.456c-0.703-0.703-1.531-1.231-2.434-1.566l0.003-0.006h-0.016c-0.741-0.272-1.534-0.416-2.347-0.416s-1.606 0.144-2.347 0.416h-0.016l0.003 0.006c-0.903 0.334-1.734 0.863-2.434 1.566-1.281 1.281-1.988 2.984-1.988 4.797s0.706 3.516 1.988 4.797 2.984 1.988 4.797 1.988 3.516-0.706 4.797-1.988 1.988-2.984 1.988-4.797-0.712-3.516-1.994-4.797z"></path>
        <path fill="#e6d8df" style="fill: var(--color4, #e6d8df)" d="M11.591 5.456v6.053c0 1.359 1.113 2.472 2.472 2.472h3.994c1.359 0 2.472-1.113 2.472-2.472v-6.053h-8.938z"></path>
        <path fill="#843a5f" style="fill: var(--color3, #843a5f)" d="M18.056 14.075h-3.994c-1.416 0-2.566-1.15-2.566-2.566v-6.053h0.188v6.053c0 1.313 1.066 2.378 2.378 2.378h3.994c1.313 0 2.378-1.066 2.378-2.378v-6.053h0.188v6.053c0 1.412-1.15 2.566-2.566 2.566z"></path>
        <path fill="#fff" style="fill: var(--color2, #fff)" d="M11.419 8.022c0 1.172 0.95 2.122 2.122 2.122s2.122-0.95 2.122-2.122v0c0-1.172-0.95-2.122-2.122-2.122s-2.122 0.95-2.122 2.122v0z"></path>
        <path fill="#843a5f" style="fill: var(--color3, #843a5f)" d="M13.541 10.238c-1.222 0-2.216-0.994-2.216-2.216s0.994-2.216 2.216-2.216c1.222 0 2.216 0.994 2.216 2.216s-0.994 2.216-2.216 2.216zM13.541 5.994c-1.119 0-2.028 0.909-2.028 2.028s0.909 2.028 2.028 2.028 2.028-0.909 2.028-2.028-0.909-2.028-2.028-2.028z"></path>
        <path fill="#fff" style="fill: var(--color2, #fff)" d="M16.438 8.022c0 1.172 0.95 2.122 2.122 2.122s2.122-0.95 2.122-2.122v0c0-1.172-0.95-2.122-2.122-2.122s-2.122 0.95-2.122 2.122v0z"></path>
        <path fill="#843a5f" style="fill: var(--color3, #843a5f)" d="M18.559 10.238c-1.222 0-2.216-0.994-2.216-2.216s0.994-2.216 2.216-2.216c1.222 0 2.216 0.994 2.216 2.216 0.003 1.222-0.994 2.216-2.216 2.216zM18.559 5.994c-1.119 0-2.028 0.909-2.028 2.028s0.909 2.028 2.028 2.028 2.028-0.909 2.028-2.028-0.909-2.028-2.028-2.028z"></path>
        <path fill="#843a5f" style="fill: var(--color3, #843a5f)" d="M16.666 8.481h-0.188c0-0.231-0.188-0.419-0.419-0.419s-0.419 0.188-0.419 0.419h-0.188c0-0.334 0.272-0.606 0.606-0.606s0.606 0.272 0.606 0.606zM16.053 12.606c-0.722 0-1.453-0.175-1.453-0.509h0.188c0 0.109 0.447 0.322 1.266 0.322s1.266-0.213 1.266-0.322h0.188c0 0.334-0.731 0.509-1.453 0.509zM20.85 4.5c-0.025-0.066-0.072-0.112-0.131-0.138-0.041-0.016-0.072-0.072-0.116-0.144-0.175-0.288-0.466-0.769-2.106-0.597-0.212-0.197-1.397-1.212-2.641-0.856-0.181-0.022-1.412-0.144-2.191 0.506-0.116 0.041-0.878 0.288-1.325 0-0.194-0.125-0.306-0.337-0.328-0.637l-0.012-0.134-0.122 0.056c-0.031 0.016-0.762 0.356-0.934 1.091-0.116 0.506 0.063 1.063 0.534 1.656-0.019 0.047-0.025 0.106 0.003 0.172 0.066 0.144 0.284 0.231 0.688 0.278 0.509 0.059 1.3 0.047 2.353-0.037 0.116 0.025 0.859 0.175 1.709 0.175 0.222 0 0.453-0.009 0.681-0.037 0.153 0.013 2.103 0.153 3.641-0.284l0.041-0.013 0.019-0.037c0.034-0.075 0.347-0.731 0.238-1.019z"></path>
        <path fill="#fff" style="fill: var(--color2, #fff)" d="M23.441 28.575h-14.828c-0.206 0-0.375-0.169-0.375-0.375v-11.734c0-0.206 0.169-0.375 0.375-0.375h14.828c0.206 0 0.375 0.169 0.375 0.375v11.738c0 0.203-0.169 0.372-0.375 0.372z"></path>
        <path fill="#843a5f" style="fill: var(--color3, #843a5f)" d="M23.441 28.669h-14.828c-0.259 0-0.469-0.209-0.469-0.469v-11.734c0-0.259 0.209-0.469 0.469-0.469h14.828c0.259 0 0.469 0.209 0.469 0.469v11.738c0 0.256-0.209 0.466-0.469 0.466zM8.613 16.184c-0.156 0-0.281 0.125-0.281 0.281v11.738c0 0.156 0.125 0.281 0.281 0.281h14.828c0.156 0 0.281-0.125 0.281-0.281v-11.738c0-0.156-0.125-0.281-0.281-0.281h-14.828z"></path>
        <path fill="#e6d8df" style="fill: var(--color4, #e6d8df)" d="M8.994 23.163c-0.403 0.563-1.059 0.563-1.463 0s-0.403-1.472 0-2.031c0.403-0.563 1.059-0.563 1.463 0 0.403 0.559 0.403 1.469 0 2.031z"></path>
        <path fill="#843a5f" style="fill: var(--color3, #843a5f)" d="M8.262 23.678c-0.306 0-0.594-0.163-0.806-0.459-0.425-0.591-0.425-1.553 0-2.144 0.213-0.297 0.5-0.459 0.806-0.459s0.594 0.163 0.806 0.459c0.425 0.591 0.425 1.553 0 2.144-0.213 0.297-0.5 0.459-0.806 0.459zM8.262 20.803c-0.244 0-0.478 0.134-0.656 0.381-0.381 0.531-0.381 1.394 0 1.922 0.178 0.247 0.409 0.381 0.656 0.381 0.244 0 0.478-0.134 0.656-0.381 0.381-0.531 0.381-1.394 0-1.922-0.178-0.247-0.409-0.381-0.656-0.381z"></path>
        <path fill="#e6d8df" style="fill: var(--color4, #e6d8df)" d="M24.563 23.163c-0.403 0.563-1.059 0.563-1.462 0s-0.403-1.472 0-2.031c0.403-0.563 1.059-0.563 1.462 0 0.403 0.559 0.403 1.469 0 2.031z"></path>
        <path fill="#843a5f" style="fill: var(--color3, #843a5f)" d="M23.831 23.678c-0.306 0-0.594-0.163-0.806-0.459-0.425-0.591-0.425-1.553 0-2.144 0.212-0.297 0.5-0.459 0.806-0.459s0.594 0.163 0.806 0.459c0.425 0.591 0.425 1.553 0 2.144-0.212 0.297-0.5 0.459-0.806 0.459zM23.831 20.803c-0.244 0-0.478 0.134-0.656 0.381-0.381 0.531-0.381 1.394 0 1.922 0.178 0.247 0.409 0.381 0.656 0.381 0.244 0 0.478-0.134 0.656-0.381 0.381-0.531 0.381-1.394 0-1.922-0.178-0.247-0.413-0.381-0.656-0.381z"></path>
        <path fill="#e6d8df" style="fill: var(--color4, #e6d8df)" d="M12.734 24.566h-1.375c-0.206 0-0.375 0.169-0.375 0.375v2.288c0 0.206 0.169 0.375 0.375 0.375h1.375c0.206 0 0.375-0.169 0.375-0.375v-2.288c0-0.206-0.169-0.375-0.375-0.375z"></path>
        <path fill="#843a5f" style="fill: var(--color3, #843a5f)" d="M12.734 27.697h-1.375c-0.259 0-0.469-0.209-0.469-0.469v-2.288c0-0.259 0.209-0.469 0.469-0.469h1.375c0.259 0 0.469 0.209 0.469 0.469v2.288c0 0.256-0.209 0.469-0.469 0.469zM11.359 24.659c-0.156 0-0.281 0.125-0.281 0.281v2.288c0 0.156 0.125 0.281 0.281 0.281h1.375c0.156 0 0.281-0.125 0.281-0.281v-2.288c0-0.156-0.125-0.281-0.281-0.281h-1.375z"></path>
        <path fill="#e6d8df" style="fill: var(--color4, #e6d8df)" d="M20.706 16.972h-1.375c-0.206 0-0.375 0.169-0.375 0.375v9.881c0 0.206 0.169 0.375 0.375 0.375h1.375c0.206 0 0.375-0.169 0.375-0.375v-9.881c0-0.206-0.169-0.375-0.375-0.375z"></path>
        <path fill="#843a5f" style="fill: var(--color3, #843a5f)" d="M20.706 27.697h-1.375c-0.259 0-0.469-0.209-0.469-0.469v-9.881c0-0.259 0.209-0.469 0.469-0.469h1.375c0.259 0 0.469 0.209 0.469 0.469v9.881c0 0.256-0.209 0.469-0.469 0.469zM19.331 17.066c-0.156 0-0.281 0.125-0.281 0.281v9.881c0 0.156 0.125 0.281 0.281 0.281h1.375c0.156 0 0.281-0.125 0.281-0.281v-9.881c0-0.156-0.125-0.281-0.281-0.281h-1.375z"></path>
        <path fill="#e6d8df" style="fill: var(--color4, #e6d8df)" d="M16.722 21.528h-1.375c-0.206 0-0.375 0.169-0.375 0.375v5.325c0 0.206 0.169 0.375 0.375 0.375h1.375c0.206 0 0.375-0.169 0.375-0.375v-5.325c0-0.206-0.169-0.375-0.375-0.375z"></path>
        <path fill="#843a5f" style="fill: var(--color3, #843a5f)" d="M16.722 27.697h-1.375c-0.259 0-0.469-0.209-0.469-0.469v-5.325c0-0.259 0.209-0.469 0.469-0.469h1.375c0.259 0 0.469 0.209 0.469 0.469v5.325c0 0.256-0.212 0.469-0.469 0.469zM15.344 21.622c-0.156 0-0.281 0.125-0.281 0.281v5.325c0 0.156 0.125 0.281 0.281 0.281h1.375c0.156 0 0.281-0.125 0.281-0.281v-5.325c0-0.156-0.125-0.281-0.281-0.281h-1.375z"></path>
</symbol>
<symbol id="icon-header-arrow" viewBox="0 0 28 32">
<path fill="#fff" style="fill: var(--color1, #fff)" d="M5.898 12h16.512l-7.422 8.39c-0.203 0.237-0.501 0.387-0.834 0.391h-0.001c-0.334-0.004-0.632-0.155-0.833-0.39l-0.001-0.002-7.422-8.39z"></path>
</symbol>
<symbol id="icon-userphoto" viewBox="0 0 32 32">
<path   d="M5.334 29.334c0-5.891 4.775-10.666 10.666-10.666s10.666 4.775 10.666 10.666v0h-21.332zM16 17.334c-0.001 0-0.001 0-0.002 0-4.417 0-7.998-3.581-7.998-7.998 0-0.001 0-0.001 0-0.002v0c0-0.001 0-0.001 0-0.002 0-4.417 3.581-7.998 7.998-7.998 0.001 0 0.001 0 0.002 0h-0c0 0 0.001 0 0.002 0 4.417 0 7.998 3.581 7.998 7.998 0 0.001 0 0.001 0 0.002v-0c0 0.001 0 0.001 0 0.002 0 4.417-3.581 7.998-7.998 7.998-0.001 0-0.001 0-0.002 0h0z"></path>
</symbol>

</defs>
</svg>