<svg aria-hidden="true" style="position: absolute; width: 0; height: 0; overflow: hidden;" version="1.1" xmlns="http://www.w3.org/2000/svg" xmlns:xlink="http://www.w3.org/1999/xlink">
<defs>
<symbol id="icon-lock-02" viewBox="0 0 32 32">
<path stroke-linejoin="round" stroke-linecap="round" stroke-miterlimit="4" stroke-width="2.2857" d="M22.666 14.666v-4c0-3.682-2.985-6.666-6.666-6.666s-6.666 2.985-6.666 6.666v0 4M10.4 28h11.2c2.24 0 3.36 0 4.216-0.435 0.756-0.391 1.358-0.992 1.738-1.726l0.011-0.022c0.435-0.856 0.435-1.976 0.435-4.216v-0.534c0-2.24 0-3.36-0.435-4.216-0.391-0.756-0.992-1.358-1.726-1.738l-0.022-0.011c-0.856-0.434-1.976-0.434-4.216-0.434h-11.2c-2.24 0-3.36 0-4.216 0.434-0.756 0.391-1.358 0.992-1.738 1.726l-0.011 0.022c-0.435 0.857-0.435 1.977-0.435 4.217v0.533c0 2.24 0 3.36 0.435 4.216 0.391 0.756 0.992 1.358 1.726 1.738l0.022 0.011c0.856 0.435 1.976 0.435 4.216 0.435z"></path>
</symbol>
<symbol id="icon-mail-02" viewBox="0 0 32 32">
<path stroke-linejoin="round" stroke-linecap="round" stroke-miterlimit="4" stroke-width="2.2857" d="M28.667 24l-8.857-8M12.191 16l-8.857 8M2.667 9.334l10.886 7.621c0.882 0.617 1.322 0.926 1.802 1.045 0.423 0.106 0.866 0.106 1.29 0 0.479-0.119 0.92-0.427 1.801-1.045l10.887-7.621M9.066 26.666h13.867c2.24 0 3.36 0 4.216-0.435 0.756-0.391 1.358-0.992 1.738-1.726l0.011-0.022c0.434-0.855 0.434-1.976 0.434-4.216v-8.533c0-2.24 0-3.36-0.434-4.217-0.391-0.756-0.992-1.357-1.726-1.737l-0.022-0.011c-0.856-0.435-1.976-0.435-4.217-0.435h-13.864c-2.24 0-3.36 0-4.217 0.435-0.756 0.391-1.357 0.992-1.737 1.726l-0.010 0.022c-0.435 0.855-0.435 1.975-0.435 4.216v8.533c0 2.24 0 3.36 0.435 4.217 0.391 0.756 0.992 1.357 1.726 1.737l0.022 0.011c0.855 0.435 1.975 0.435 4.216 0.435z"></path>
</symbol>
</defs>
</svg>
