<!-- Generated by IcoMoon.io -->
<svg version="1.1" xmlns="http://www.w3.org/2000/svg" width="3398" height="1024" viewBox="0 0 3398 1024">
<title></title>
<g id="icomoon-ignore">
</g>
<path d="M245.929 0.049c-16.706 0.748-33.442 2.372-50.215 4.872-29.723 4.744-57.953 13.988-84.691 27.731-51.866 27.692-82.719 70.787-92.56 129.285-2.182 12.816 3.188 20.183 16.114 22.11 34.223 4.309 68.449 8.304 102.678 11.992 8.1-2.106 13.221-7.225 15.364-15.364 3.349-21.084 13.467-37.948 30.354-50.59 28.495-18.683 58.722-22.18 90.687-10.493 18.302 8.576 28.922 22.941 31.853 43.095 3.5 22.349 4.872 44.834 4.122 67.453-27.761 2.248-55.491 4.872-83.192 7.87-11.047 1.424-22.035 3.17-32.977 5.246-35.105 6.153-68.582 17.141-100.43 32.977-62.104 35.735-93.082 89.697-92.935 161.887-1.147 35.518 7.472 68.367 25.857 98.556 32.959 43.709 77.054 65.692 132.283 65.954 67.873-3.283 124.96-29.514 171.255-78.695 10.74 13.993 21.487 27.978 32.227 41.971 7.622 8.619 15.739 16.736 24.358 24.358 8.986 6.468 18.475 7.217 28.48 2.248 26.981-23.234 53.962-46.468 80.943-69.701 9.316-8.049 10.44-17.171 3.373-27.356-7.36-9.226-14.352-18.722-20.985-28.48-10.223-14.937-16.473-31.426-18.737-49.465-0.982-81.925-1.484-163.873-1.499-245.828-0.345-80.546-38.695-133.384-115.045-158.514-31.545-9.306-63.773-13.678-96.682-13.116zM282.654 314.829c8.994 0 17.987 0 26.981 0 0.27 23.496-0.105 46.977-1.124 70.451-3.23 28.697-13.221 54.674-29.979 77.946-16.001 20.176-36.859 31.171-62.581 32.977-26.059-1.222-44.421-13.715-55.087-37.474-9.454-26.457-9.454-52.943 0-79.445 10.394-23.631 27.507-40.494 51.339-50.59 13.67-5.891 27.911-9.638 42.72-11.242 9.346-0.997 18.595-1.874 27.731-2.623z"></path>
<path d="M1611.476 0.049c-38.073 0.893-75.045 8.013-110.923 21.36-65.010 25.048-103.862 71.891-116.544 140.527-2.181 12.816 3.185 20.183 16.114 22.11 34.221 4.309 68.45 8.304 102.678 11.992 7.847-2.353 12.973-7.472 15.364-15.364 3.29-19.966 12.659-36.329 28.105-49.091 28.922-19.977 59.898-23.974 92.935-11.992 17.081 8.094 27.446 21.46 31.103 40.097 4.070 23.301 5.689 46.782 4.872 70.451-27.761 2.248-55.491 4.872-83.192 7.87-11.047 1.424-22.035 3.17-32.977 5.246-35.105 6.153-68.585 17.141-100.43 32.977-62.109 35.75-93.085 89.712-92.935 161.887-1.207 36.522 7.907 70.121 27.356 100.805 33.052 42.315 76.649 63.556 130.784 63.706 67.88-3.283 124.96-29.514 171.255-78.695 10.455 14.203 21.195 28.195 32.227 41.971 7.622 8.619 15.739 16.736 24.358 24.358 10.035 7.135 20.273 7.382 30.729 0.749 26.232-22.732 52.463-45.471 78.695-68.202 8.447-7.367 9.826-15.986 4.122-25.857-8.537-11.28-16.781-22.777-24.733-34.476-8.379-13.888-13.625-28.877-15.739-44.969-0.764-87.179-1.514-174.373-2.248-261.567-1.049-11.35-2.796-22.592-5.246-33.726-3.238-17.723-10.23-33.712-20.985-47.967-22.709-29.67-52.066-50.031-88.064-61.082-31.545-9.306-63.773-13.678-96.682-13.116zM1648.2 314.829c8.994 0 17.987 0 26.981 0 0.27 23.249-0.105 46.483-1.124 69.701-3.080 28.99-13.071 55.221-29.979 78.695-15.971 20.168-36.837 31.156-62.581 32.977-26.059-1.222-44.421-13.715-55.087-37.474-9.436-26.457-9.436-52.936 0-79.445 10.395-23.631 27.506-40.494 51.339-50.59 13.648-5.973 27.888-9.721 42.72-11.242 9.346-0.997 18.595-1.874 27.731-2.623z"></path>
<path d="M852.256 5.296c58.129-2.236 101.472 21.747 130.034 71.95 4.894 8.785 9.391 17.778 13.491 26.981 26.801-64.098 75.143-97.075 145.024-98.931 42.203 0.321 78.553 14.811 109.049 43.47 20.671 21.86 32.91 47.841 36.724 77.946 1.634 11.437 2.631 22.929 2.998 34.476-0.18 139.148-0.427 278.303-0.749 417.459-2.758 9.069-8.881 14.195-18.362 15.364-35.975 0.502-71.95 0.502-107.925 0-7.862-1.117-13.483-5.239-16.863-12.366-0.997-122.884-1.491-245.798-1.499-368.743-1.117-56.833-29.469-79.442-85.066-67.828-28.12 12.106-43.987 33.464-47.592 64.080-1.491 10.193-2.496 20.438-2.998 30.729-0.247 112.174-0.502 224.341-0.749 336.515-2.031 10.523-8.402 16.399-19.112 17.613-35.728 0.502-71.448 0.502-107.175 0-10.305-1.559-16.429-7.435-18.362-17.613-0.592-108.299-0.465-216.599 0.375-324.898 0.105-15.672-0.764-31.283-2.623-46.842-7.262-53.905-37.114-73.766-89.562-59.583-13.528 6.036-23.646 15.654-30.354 28.855-7.195 16.226-11.437 33.217-12.741 50.964-0.712 8.229-1.214 16.473-1.499 24.733-0.247 109.671-0.502 219.349-0.749 329.020-2.758 9.069-8.881 14.195-18.362 15.364-35.975 0.502-71.95 0.502-107.925 0-9.039-1.079-14.915-5.951-17.613-14.615-0.749-183.404-0.495-366.779 0.749-550.116 2.593-5.86 6.97-9.733 13.116-11.617 34.978-0.636 69.949-0.885 104.927-0.749 9.481 1.172 15.604 6.293 18.362 15.364 0.127 24.487 0.502 48.969 1.124 73.449 9.953-27.794 25.939-51.403 47.967-70.826 24.845-18.732 52.823-28.601 83.941-29.604z"></path>
<path d="M2639.758 5.296c-57.193 1.859-106.283 22.594-147.272 62.207-30.998 32.997-52.733 71.47-65.204 115.419-14.637 52.546-19.629 106.013-14.99 160.388 3.695 58.519 20.678 112.729 50.964 162.636 36.425 56.151 88.011 88.753 154.767 97.807 60.902 7.262 115.862-7.225 164.885-43.47 34.498-28.383 60.355-63.233 77.571-104.552 21.975-55.371 30.968-112.834 26.981-172.38-2.233-55.416-15.724-107.88-40.472-157.39-44.676-81.383-113.756-121.606-207.23-120.666zM2642.756 116.218c32.145-2.114 55.251 11.127 69.327 39.722 7.952 21.060 13.198 42.795 15.739 65.204 6.048 55.439 6.303 110.9 0.749 166.384-2.301 20.431-7.292 40.172-14.99 59.209-19.389 41.521-50.74 54.884-94.059 40.097-16.039-10.298-27.408-24.418-34.101-42.345-7.705-20.588-12.704-41.821-14.99-63.706-5.411-55.221-5.411-110.428 0-165.634 2.218-18.092 6.715-35.578 13.491-52.463 5.479-13.102 13.603-24.219 24.358-33.352 10.35-7.554 21.84-11.926 34.476-13.116z"></path>
<path d="M3240.089 5.296c34.244-1.683 65.722 6.687 94.434 25.107 27.019 19.661 44.631 45.768 52.838 78.32 6.843 29.325 10.335 59.051 10.493 89.188 0.742 127.943 0.495 255.856-0.749 383.732-2.496 5.988-6.865 9.863-13.116 11.617-19.464 0.854-38.95 1.229-58.459 1.124-19.509 0.105-38.995-0.27-58.459-1.124-5.516-2.016-9.638-5.636-12.366-10.867-0.997-115.127-1.499-230.299-1.499-345.509 0.075-20.783-3.17-41.019-9.743-60.708-10.215-24.603-28.705-37.095-55.461-37.474-30.204 3.215-50.934 18.954-62.207 47.217-8.582 21.915-13.326 44.646-14.24 68.202-0.247 106.928-0.502 213.848-0.749 320.776-1.372 11.37-7.742 17.74-19.112 19.112-35.728 0.502-71.448 0.502-107.175 0-10.305-1.559-16.429-7.435-18.362-17.613-0.749-182.153-0.495-364.276 0.749-546.369 2.758-6.257 7.382-10.38 13.865-12.366 34.476-0.634 68.952-0.884 103.428-0.749 9.151 0.666 15.274 5.287 18.362 13.865 0.127 27.984 0.502 55.964 1.124 83.941 9.054-23.115 21.165-44.35 36.35-63.706 26.531-29.939 59.883-45.178 100.055-45.718z"></path>
<path d="M1979.469 15.788c118.919-0.125 237.831 0 356.751 0.375 7.12 2.123 11.744 6.745 13.865 13.865 0.502 25.482 0.502 50.964 0 76.447-3.605 10.463-8.604 20.206-14.99 29.23-63.106 89.368-125.942 178.93-188.493 268.687 54.869-1.619 108.082 6.873 159.639 25.482 14.248 5.748 27.985 12.494 41.221 20.236 7.397 6.168 11.767 14.038 13.116 23.609 0.502 29.979 0.502 59.958 0 89.937-3.215 11.714-10.837 16.833-22.859 15.364-95.963-48.244-195.643-57.74-299.041-28.48-24.665 7.457-48.401 17.2-71.2 29.23-10.65 0.839-17.77-3.777-21.36-13.865-0.502-33.726-0.502-67.453 0-101.179 1.327-13.888 5.823-26.629 13.491-38.223 68.472-97.829 136.802-195.763 204.982-293.795-61.704-0.624-123.409-0.999-185.121-1.124-7.12-2.123-11.744-6.745-13.865-13.865-0.502-29.23-0.502-58.459 0-87.689 2.278-7.152 6.903-11.898 13.865-14.24z"></path>
<path d="M2136.11 617.618c33.794-1.282 67.273 1.342 100.43 7.87 12.794 2.436 24.785 6.933 35.975 13.491 5.014 4.774 7.884 10.643 8.619 17.613 2.271 20.034 1.776 40.022-1.499 59.958-10.065 65.564-33.801 125.522-71.2 179.874-12.479 17.23-26.839 32.842-43.095 46.842-4.999 4.25-10.747 6.873-17.238 7.87-6.813-0.442-10.56-4.070-11.242-10.867 0.517-3.463 1.387-6.835 2.623-10.118 20.813-48.956 38.051-99.171 51.714-150.645 3.56-14.787 5.681-29.777 6.371-44.969 0.457-9.653-1.664-18.647-6.371-26.981-6.573-6.603-14.442-10.972-23.609-13.116-20.618-4.414-41.476-6.535-62.581-6.371-49.293 1.491-98.384 5.494-147.272 11.992-12.246-0.622-16.121-6.618-11.617-17.987 2.601-3.35 5.471-6.468 8.619-9.368 35.593-23.781 74.565-39.52 116.918-47.217 21.443-3.92 42.923-6.543 64.455-7.87z"></path>
<path d="M493.257 652.843c4.107-0.105 8.109 0.525 11.992 1.874 209.052 119.819 433.392 194.767 673.030 224.843 288.264 35.008 568.321 1.536 840.163-100.43 22.799-8.851 45.538-17.845 68.202-26.981 13.91-3.305 25.28 0.57 34.101 11.617 5.389 11.070 4.137 21.315-3.747 30.729-2.398 2.653-5.021 5.021-7.87 7.12-86.265 61.749-179.949 109.963-281.054 144.649-262.002 91.151-527.317 102.146-795.944 32.977-206.676-55.769-388.671-154.827-545.994-297.168-7.262-8.619-7.39-17.238-0.375-25.857 2.488-1.372 4.984-2.496 7.495-3.373z"></path>
</svg>
